<svg id="visual" viewBox="0 0 1920 1080" width="1920" height="1080" xmlns="http://www.w3.org/2000/svg" xmlns:xlink="http://www.w3.org/1999/xlink" version="1.1"><path d="M1689 1080L1692.2 1054.3C1695.3 1028.7 1701.7 977.3 1685.7 925.8C1669.7 874.3 1631.3 822.7 1631.3 771.2C1631.3 719.7 1669.7 668.3 1704.8 617C1740 565.7 1772 514.3 1784.8 463C1797.7 411.7 1791.3 360.3 1772.2 308.8C1753 257.3 1721 205.7 1682.5 154.2C1644 102.7 1599 51.3 1576.5 25.7L1554 0L1920 0L1920 25.7C1920 51.3 1920 102.7 1920 154.2C1920 205.7 1920 257.3 1920 308.8C1920 360.3 1920 411.7 1920 463C1920 514.3 1920 565.7 1920 617C1920 668.3 1920 719.7 1920 771.2C1920 822.7 1920 874.3 1920 925.8C1920 977.3 1920 1028.7 1920 1054.3L1920 1080Z" fill="#a07692"></path><path d="M1516 1080L1480.8 1054.3C1445.7 1028.7 1375.3 977.3 1372.2 925.8C1369 874.3 1433 822.7 1455.3 771.2C1477.7 719.7 1458.3 668.3 1487 617C1515.7 565.7 1592.3 514.3 1598.7 463C1605 411.7 1541 360.3 1525 308.8C1509 257.3 1541 205.7 1505.8 154.2C1470.7 102.7 1368.3 51.3 1317.2 25.7L1266 0L1555 0L1577.5 25.7C1600 51.3 1645 102.7 1683.5 154.2C1722 205.7 1754 257.3 1773.2 308.8C1792.3 360.3 1798.7 411.7 1785.8 463C1773 514.3 1741 565.7 1705.8 617C1670.7 668.3 1632.3 719.7 1632.3 771.2C1632.3 822.7 1670.7 874.3 1686.7 925.8C1702.7 977.3 1696.3 1028.7 1693.2 1054.3L1690 1080Z" fill="#b594a9"></path><path d="M1151 1080L1125.3 1054.3C1099.7 1028.7 1048.3 977.3 1061.2 925.8C1074 874.3 1151 822.7 1176.7 771.2C1202.3 719.7 1176.7 668.3 1163.8 617C1151 565.7 1151 514.3 1147.8 463C1144.7 411.7 1138.3 360.3 1119.2 308.8C1100 257.3 1068 205.7 1036 154.2C1004 102.7 972 51.3 956 25.7L940 0L1267 0L1318.2 25.7C1369.3 51.3 1471.7 102.7 1506.8 154.2C1542 205.7 1510 257.3 1526 308.8C1542 360.3 1606 411.7 1599.7 463C1593.3 514.3 1516.7 565.7 1488 617C1459.3 668.3 1478.7 719.7 1456.3 771.2C1434 822.7 1370 874.3 1373.2 925.8C1376.3 977.3 1446.7 1028.7 1481.8 1054.3L1517 1080Z" fill="#c9b2c0"></path><path d="M287 1080L357.3 1054.3C427.7 1028.7 568.3 977.3 651.5 925.8C734.7 874.3 760.3 822.7 741.2 771.2C722 719.7 658 668.3 587.7 617C517.3 565.7 440.7 514.3 431.2 463C421.7 411.7 479.3 360.3 527.3 308.8C575.3 257.3 613.7 205.7 623.2 154.2C632.7 102.7 613.3 51.3 603.7 25.7L594 0L941 0L957 25.7C973 51.3 1005 102.7 1037 154.2C1069 205.7 1101 257.3 1120.2 308.8C1139.3 360.3 1145.7 411.7 1148.8 463C1152 514.3 1152 565.7 1164.8 617C1177.7 668.3 1203.3 719.7 1177.7 771.2C1152 822.7 1075 874.3 1062.2 925.8C1049.3 977.3 1100.7 1028.7 1126.3 1054.3L1152 1080Z" fill="#ddd1d8"></path><path d="M0 1080L0 1054.3C0 1028.7 0 977.3 0 925.8C0 874.3 0 822.7 0 771.2C0 719.7 0 668.3 0 617C0 565.7 0 514.3 0 463C0 411.7 0 360.3 0 308.8C0 257.3 0 205.7 0 154.2C0 102.7 0 51.3 0 25.7L0 0L595 0L604.7 25.7C614.3 51.3 633.7 102.7 624.2 154.2C614.7 205.7 576.3 257.3 528.3 308.8C480.3 360.3 422.7 411.7 432.2 463C441.7 514.3 518.3 565.7 588.7 617C659 668.3 723 719.7 742.2 771.2C761.3 822.7 735.7 874.3 652.5 925.8C569.3 977.3 428.7 1028.7 358.3 1054.3L288 1080Z" fill="#f1f1f1"></path></svg>